<svg width="64" height="64" viewBox="0 0 64 64" xmlns="http://www.w3.org/2000/svg">
  <defs>
    <linearGradient id="envoyGradient" x1="0%" y1="0%" x2="100%" y2="100%">
      <stop offset="0%" style="stop-color:#4f46e5;stop-opacity:1" />
      <stop offset="100%" style="stop-color:#7c3aed;stop-opacity:1" />
    </linearGradient>
  </defs>
  
  <!-- Background circle -->
  <circle cx="32" cy="32" r="30" fill="url(#envoyGradient)" stroke="#e5e7eb" stroke-width="2"/>
  
  <!-- Gateway icon -->
  <g transform="translate(16, 16)">
    <!-- Gateway pillars -->
    <rect x="4" y="8" width="4" height="20" fill="white" rx="1"/>
    <rect x="14" y="8" width="4" height="20" fill="white" rx="1"/>
    <rect x="24" y="8" width="4" height="20" fill="white" rx="1"/>
    
    <!-- Gateway top -->
    <rect x="2" y="6" width="28" height="4" fill="white" rx="2"/>
    
    <!-- Gateway base -->
    <rect x="0" y="26" width="32" height="4" fill="white" rx="2"/>
    
    <!-- Connection lines -->
    <path d="M6 12 L16 12 M16 16 L26 16 M6 20 L16 20 M16 24 L26 24" 
          stroke="white" stroke-width="1.5" stroke-linecap="round"/>
  </g>
  
  <!-- Small indicator dots -->
  <circle cx="48" cy="16" r="3" fill="#10b981"/>
  <circle cx="48" cy="32" r="2" fill="#f59e0b"/>
  <circle cx="48" cy="48" r="2" fill="#6b7280"/>
</svg>